<svg xmlns="http://www.w3.org/2000/svg" width="25.6mm" height="25.6mm" viewBox="0 0 25.6 25.6"><g style="display:inline"><path d="M12.887-.947v11.2l-1.6 1.6v12.8h11.2v-6.4h3.2v6.4h11.2v-12.8l-1.6-1.6v-11.2h-9.6v4.8h-3.2v-4.8zm1.6 3.2h1.6v4.8h-1.6zm4.8 0h1.6v4.8h-1.6zm8 0h1.6v4.8h-1.6zm4.8 0h1.6v4.8h-1.6zm-16 9.6h1.6l1.6 1.6v4.8h-4.8v-4.8zm14.4 0h1.6l1.6 1.6v4.8h-4.8v-4.8z" style="display:inline;fill:#787878;stroke-width:.328174" transform="translate(-11.287 .947)"/></g><g style="display:inline"><path d="M3.2 24h3.2v1.6H3.2z" style="display:inline;fill:#666;fill-opacity:1;stroke-width:.103778"/><path d="M1.6 22.4h3.2V24H1.6zM6.4 24h3.2v1.6H6.4z" style="display:inline;fill:#595959;fill-opacity:1;stroke-width:.103778"/><path d="M8 22.4h3.2V24H8z" style="display:inline;fill:#666;fill-opacity:1;stroke-width:.103778"/><path d="M14.4 24H16v1.6h-1.6z" style="display:inline;fill:#666;fill-opacity:1;stroke-width:.0733786"/><path d="M20.8 22.4H24V24h-3.2zM16 24h3.2v1.6H16z" style="display:inline;fill:#595959;fill-opacity:1;stroke-width:.103778"/><path d="M17.6 22.4h3.2V24h-3.2zM22.4 24h3.2v1.6h-3.2zM3.2 20.8h3.2v1.6H3.2z" style="display:inline;fill:#666;fill-opacity:1;stroke-width:.103778"/><path d="M1.6 19.2h3.2v1.6H1.6zM6.4 20.8h3.2v1.6H6.4z" style="display:inline;fill:#595959;fill-opacity:1;stroke-width:.103778"/><path d="M8 19.2h3.2v1.6H8z" style="display:inline;fill:#666;fill-opacity:1;stroke-width:.103778"/><path d="M14.4 20.8H16v1.6h-1.6z" style="display:inline;fill:#666;fill-opacity:1;stroke-width:.0733821"/><path d="M20.8 19.2H24v1.6h-3.2zM16 20.8h3.2v1.6H16z" style="display:inline;fill:#595959;fill-opacity:1;stroke-width:.103778"/><path d="M17.6 19.2h3.2v1.6h-3.2zM22.4 20.8h3.2v1.6h-3.2z" style="display:inline;fill:#666;fill-opacity:1;stroke-width:.103778"/><path d="M1.6 16h1.6v1.6H1.6z" style="display:inline;fill:#595959;fill-opacity:1;stroke-width:.0733821"/><path d="M11.2 16h3.2v1.6h-3.2z" style="display:inline;fill:#595959;fill-opacity:1;stroke-width:.103778"/><path d="M8 17.6h1.6v1.6H8z" style="display:inline;fill:#595959;fill-opacity:1;stroke-width:.0733821"/><path d="M8 16h3.2v1.6H8zM12.8 17.6H16v1.6h-3.2z" style="display:inline;fill:#666;fill-opacity:1;stroke-width:.103778"/><path d="M22.4 16H24v1.6h-1.6z" style="display:inline;fill:#595959;fill-opacity:1;stroke-width:.0733822"/><path d="M16 17.6h1.6v1.6H16z" style="display:inline;fill:#595959;fill-opacity:1;stroke-width:.0733821"/><path d="M22.4 17.6h3.2v1.6h-3.2z" style="display:inline;fill:#666;fill-opacity:1;stroke-width:.103778"/><path d="M1.6 12.8h3.2l-1.6 1.6H1.6z" style="display:inline;fill:#595959;stroke-width:.103778"/><path d="M11.2 12.8h3.2v1.6h-3.2z" style="display:inline;fill:#595959;fill-opacity:1;stroke-width:.103778"/><path d="M8 14.4h1.6V16H8z" style="display:inline;fill:#595959;fill-opacity:1;stroke-width:.0733821"/><path d="M8 12.8h3.2v1.6H8zM12.8 14.4H16V16h-3.2z" style="display:inline;fill:#666;fill-opacity:1;stroke-width:.103778"/><path d="M20.8 12.8H24v1.6h-1.6z" style="display:inline;fill:#595959;stroke-width:.103778"/><path d="M16 14.4h1.6V16H16z" style="display:inline;fill:#595959;fill-opacity:1;stroke-width:.0733822"/><path d="M17.6 12.8h1.6l-1.6 1.6z" style="display:inline;fill:#666;stroke-width:.103778"/><path d="M22.4 14.4h3.2V16h-3.2zM3.2 11.189h3.2v1.6H3.2z" style="display:inline;fill:#666;fill-opacity:1;stroke-width:.103778"/><path d="M0 22.4h1.6V24H0zM0 19.2h1.6v1.6H0zM0 16h1.6v1.6H0zM0 12.8h1.6v1.6H0z" style="display:inline;fill:#666;fill-opacity:1;stroke-width:.0733821"/><path d="M1.6 9.589h3.2v1.6H1.6zM11.2 9.589h3.2v1.6h-3.2zM11.2 6.4h3.2V8h-3.2zM6.4 11.189h3.2v1.6H6.4z" style="display:inline;fill:#595959;fill-opacity:1;stroke-width:.103778"/><path d="M8 9.589h3.2v1.6H8zM12.8 11.189H16v1.6h-3.2z" style="display:inline;fill:#666;fill-opacity:1;stroke-width:.103778"/><path d="M20.8 9.589H24v1.6h-3.2zM16 11.189h3.2v1.6H16z" style="display:inline;fill:#595959;fill-opacity:1;stroke-width:.103778"/><path d="M17.6 9.589h3.2v1.6h-3.2z" style="display:inline;fill:#666;fill-opacity:1;stroke-width:.103778"/><path d="M22.4 11.2H24l1.6 1.6h-3.2z" style="display:inline;fill:#666;stroke-width:.0733821"/><path d="M3.2 8h3.2v1.6H3.2z" style="display:inline;fill:#666;fill-opacity:1;stroke-width:.103778"/><path d="M1.6 6.4h1.6V8H1.6z" style="display:inline;fill:#595959;fill-opacity:1;stroke-width:.0733821"/><path d="M6.4 8h3.2v1.6H6.4z" style="display:inline;fill:#595959;fill-opacity:1;stroke-width:.103778"/><path d="M4.8 4.8h1.6v1.6H4.8z" style="display:inline;fill:#666;fill-opacity:1;stroke-width:.0733821"/><path d="M6.4 4.8H8v1.6H6.4z" style="display:inline;fill:#595959;fill-opacity:1;stroke-width:.0733821"/><path d="M9.6 6.4h1.6V8H9.6z" style="display:inline;fill:#666;fill-opacity:1;stroke-width:.0733821"/><path d="M1.6 3.2h1.6v1.6H1.6z" style="display:inline;fill:#595959;fill-opacity:1;stroke-width:.0733821"/><path d="M9.6 3.2h1.6v1.6H9.6z" style="display:inline;fill:#666;fill-opacity:1;stroke-width:.0733821"/><path d="M3.2 1.6h3.2v1.6H3.2z" style="display:inline;fill:#666;fill-opacity:1;stroke-width:.103778"/><path d="M6.4 1.6h3.2v1.6H6.4zM1.6 0h3.2v1.6H1.6z" style="display:inline;fill:#595959;fill-opacity:1;stroke-width:.103778"/><path d="M8 0h3.2v1.6H8zM12.8 8H16v1.6h-3.2z" style="display:inline;fill:#666;fill-opacity:1;stroke-width:.103778"/><path d="M22.4 6.4H24V8h-1.6z" style="display:inline;fill:#595959;fill-opacity:1;stroke-width:.0733821"/><path d="M16 8h3.2v1.6H16z" style="display:inline;fill:#595959;fill-opacity:1;stroke-width:.103778"/><path d="M17.6 6.4h3.2V8h-3.2z" style="display:inline;fill:#666;fill-opacity:1;stroke-width:.103778"/><path d="M22.4 3.2H24v1.6h-1.6z" style="display:inline;fill:#595959;fill-opacity:1;stroke-width:.0733822"/><path d="M17.6 4.8h1.6v1.6h-1.6z" style="display:inline;fill:#595959;fill-opacity:1;stroke-width:.0733821"/><path d="M16 1.6h3.2v1.6H16z" style="display:inline;fill:#595959;fill-opacity:1;stroke-width:.103778"/><path d="M17.6 3.2h3.2v1.6h-3.2z" style="display:inline;fill:#666;fill-opacity:1;stroke-width:.103778"/><path d="M20.8 0H24v1.6h-3.2z" style="display:inline;fill:#595959;fill-opacity:1;stroke-width:.103778"/><path d="M17.6 0h3.2v1.6h-3.2z" style="display:inline;fill:#666;fill-opacity:1;stroke-width:.103778"/><path d="M14.4 1.6H16v1.6h-1.6z" style="display:inline;fill:#666;fill-opacity:1;stroke-width:.0733821"/><path d="M12.8 4.8H16v1.6h-3.2z" style="display:inline;fill:#666;fill-opacity:1;stroke-width:.103778"/><path d="M22.4 8H24v1.6h-1.6zM22.4 4.8H24v1.6h-1.6zM22.4 1.6H24v1.6h-1.6z" style="display:inline;fill:#666;fill-opacity:1;stroke-width:.0733821"/></g></svg>