<?xml version="1.0" encoding="UTF-8" standalone="no"?>
<svg
   width="144mm"
   height="133.039"
   viewBox="0 0 144 35.2"
   version="1.1"
   id="svg3"
   sodipodi:docname="HQ_town_land_with_spots.svg"
   inkscape:version="1.4 (86a8ad7, 2024-10-11)"
   xml:space="preserve"
   xmlns:inkscape="http://www.inkscape.org/namespaces/inkscape"
   xmlns:sodipodi="http://sodipodi.sourceforge.net/DTD/sodipodi-0.dtd"
   xmlns="http://www.w3.org/2000/svg"
   xmlns:svg="http://www.w3.org/2000/svg"><defs
     id="defs3" /><sodipodi:namedview
     id="namedview3"
     pagecolor="#ffffff"
     bordercolor="#000000"
     borderopacity="0.25"
     inkscape:showpageshadow="2"
     inkscape:pageopacity="0.0"
     inkscape:pagecheckerboard="0"
     inkscape:deskcolor="#d1d1d1"
     inkscape:document-units="mm"
     inkscape:zoom="0.81579861"
     inkscape:cx="366.51202"
     inkscape:cy="55.773569"
     inkscape:window-width="1920"
     inkscape:window-height="1017"
     inkscape:window-x="1912"
     inkscape:window-y="-8"
     inkscape:window-maximized="1"
     inkscape:current-layer="layer1"
     showgrid="true"><inkscape:grid
       id="grid1"
       units="mm"
       originx="0"
       originy="0"
       spacingx="3.2"
       spacingy="3.2000089"
       empcolor="#0099e5"
       empopacity="0.30196078"
       color="#0099e5"
       opacity="0.14901961"
       empspacing="1"
       enabled="true"
       visible="true" /></sodipodi:namedview><g
     inkscape:groupmode="layer"
     id="layer1"
     inkscape:label="Layer 1"><path
       d="M0 16h144v9.6l-6.4 3.2V32l-6.4 3.2H12.8L6.4 32v-3.2L0 25.6Z"
       style="fill:#666;stroke-width:0.295813"
       id="path1" /><path
       d="m0 9.6 6.4-3.2V3.2L12.8 0h118.4l6.4 3.2v3.2l6.4 3.2v9.6l-6.4 3.2v3.2l-6.4 3.2H12.8l-6.4-3.2v-3.2L0 19.2Z"
       style="fill:#916f6f;stroke-width:0.264583"
       id="path2" /><path
       d="m3.2 12.8 6.4-3.2V6.4L16 3.2h112l6.4 3.2v3.2l6.4 3.2V16l-6.4 3.2v3.2l-6.4 3.2H16l-6.4-3.2v-3.2L3.2 16Z"
       style="fill:#87de87;stroke-width:0.264583"
       id="path3" /><path
       style="fill:#999999;stroke-width:0.264584"
       d="m 3.1998114,16.000044 6.4000177,3.200008 H 28.799882 L 35.1999,16.000044 V 12.800035 L 28.799882,9.6000261 H 9.5998291 L 3.1998114,12.800035 Z"
       id="path4"
       sodipodi:nodetypes="ccccccccc" /><path
       style="fill:#999999;stroke-width:0.264584"
       d="m 38.399908,22.400063 6.400018,3.200008 h 19.200053 l 6.400018,-3.200008 v -3.200009 l -6.400019,-3.20001 H 44.799925 l -6.400017,3.20001 z"
       id="path4-2"
       sodipodi:nodetypes="ccccccccc" /><path
       style="fill:#999999;stroke-width:0.264584"
       d="m 73.600004,22.400063 6.400019,3.200008 h 19.200053 l 6.400024,-3.200008 v -3.200008 l -6.400026,-3.20001 H 80.000021 l -6.400017,3.20001 z"
       id="path4-2-5"
       sodipodi:nodetypes="ccccccccc" /><path
       style="fill:#999999;stroke-width:0.264584"
       d="m 108.8001,16.000045 6.40002,3.200008 19.20005,-1e-6 6.40002,-3.200008 v -3.200009 l -6.40002,-3.200009 -19.20005,9e-7 -6.40002,3.2000091 z"
       id="path4-2-1"
       sodipodi:nodetypes="ccccccccc" /></g></svg>
