<svg xmlns="http://www.w3.org/2000/svg" xml:space="preserve" width="144mm" height="133.039" viewBox="0 0 144 35.2"><path d="M0 16h144v9.6l-6.4 3.2V32l-6.4 3.2H12.8L6.4 32v-3.2L0 25.6Z" style="fill:#666;stroke-width:.295813"/><path d="m0 9.6 6.4-3.2V3.2L12.8 0h118.4l6.4 3.2v3.2l6.4 3.2v9.6l-6.4 3.2v3.2l-6.4 3.2H12.8l-6.4-3.2v-3.2L0 19.2Z" style="fill:#916f6f;stroke-width:.264583"/><path d="m3.2 12.8 6.4-3.2V6.4L16 3.2h112l6.4 3.2v3.2l6.4 3.2V16l-6.4 3.2v3.2l-6.4 3.2H16l-6.4-3.2v-3.2L3.2 16Z" style="fill:#87de87;stroke-width:.264583"/><path d="m3.2 16 6.4 3.2h19.2l6.4-3.2v-3.2l-6.4-3.2H9.6l-6.4 3.2ZM38.4 22.4l6.4 3.2H64l6.4-3.2v-3.2L64 16H44.8l-6.4 3.2zM73.6 22.4l6.4 3.2h19.2l6.4-3.2v-3.2L99.2 16H80l-6.4 3.2zM108.8 16l6.4 3.2h19.2l6.4-3.2v-3.2l-6.4-3.2h-19.2l-6.4 3.2z" style="fill:#999;stroke-width:.264584"/></svg>