<?xml version="1.0" encoding="UTF-8" standalone="no"?>
<svg
   width="144mm"
   height="133.039"
   viewBox="0 0 144 35.2"
   version="1.1"
   id="svg3"
   sodipodi:docname="HQ_town_land_m.svg"
   inkscape:version="1.4 (86a8ad7, 2024-10-11)"
   xmlns:inkscape="http://www.inkscape.org/namespaces/inkscape"
   xmlns:sodipodi="http://sodipodi.sourceforge.net/DTD/sodipodi-0.dtd"
   xmlns="http://www.w3.org/2000/svg"
   xmlns:svg="http://www.w3.org/2000/svg">
  <defs
     id="defs3" />
  <sodipodi:namedview
     id="namedview3"
     pagecolor="#ffffff"
     bordercolor="#000000"
     borderopacity="0.25"
     inkscape:showpageshadow="2"
     inkscape:pageopacity="0.0"
     inkscape:pagecheckerboard="0"
     inkscape:deskcolor="#d1d1d1"
     inkscape:document-units="mm"
     inkscape:zoom="0.81579861"
     inkscape:cx="178.96574"
     inkscape:cy="322.99638"
     inkscape:window-width="1920"
     inkscape:window-height="1017"
     inkscape:window-x="1912"
     inkscape:window-y="-8"
     inkscape:window-maximized="1"
     inkscape:current-layer="layer1" />
  <g
     inkscape:groupmode="layer"
     id="layer1"
     inkscape:label="Layer 1">
    <path
       d="M0 16h144v9.6l-6.4 3.2V32l-6.4 3.2H12.8L6.4 32v-3.2L0 25.6Z"
       style="fill:#666;stroke-width:0.295813"
       id="path1" />
    <path
       d="m0 9.6 6.4-3.2V3.2L12.8 0h118.4l6.4 3.2v3.2l6.4 3.2v9.6l-6.4 3.2v3.2l-6.4 3.2H12.8l-6.4-3.2v-3.2L0 19.2Z"
       style="fill:#916f6f;stroke-width:0.264583"
       id="path2" />
    <path
       d="m3.2 12.8 6.4-3.2V6.4L16 3.2h112l6.4 3.2v3.2l6.4 3.2V16l-6.4 3.2v3.2l-6.4 3.2H16l-6.4-3.2v-3.2L3.2 16Z"
       style="fill:#87de87;stroke-width:0.264583"
       id="path3" />
  </g>
</svg>
