<svg xmlns="http://www.w3.org/2000/svg" width="25.6mm" height="25.6mm" viewBox="0 0 25.6 25.6"><g style="display:inline"><path d="M6.4 6.4h12.8v19.2H6.4z" style="display:inline;fill:#333;stroke-width:.319099"/><path d="M4.8 3.2v3.2h1.6v19.2h4.8v-6.4h3.2v6.4h4.8V6.4h1.6V3.2zM8 9.6h3.2v3.2H8Zm6.4 0h3.2v3.2h-3.2z" style="display:inline;fill:#b3b3b3;stroke-width:.264583"/><path d="M6.4 6.4h12.8V8H6.4z" style="display:inline;fill:#666;stroke-width:.432062"/><path d="M6.4 8h12.8v1.6H6.4z" style="display:inline;fill:#4d4d4d;stroke-width:.432062"/><path d="M4.795 3.2H20.8v1.6H4.795z" style="display:inline;fill:#666;stroke-width:.483133"/><path d="M19.2 1.6v1.6h1.605V1.6ZM14.4 1.6v1.6H16V1.6ZM9.6 1.6v1.6h1.6V1.6ZM4.8 1.6v1.6h1.6V1.6Z" style="display:inline;fill:#4d4d4d;stroke-width:.483133"/><path d="M6.4 22.4h4.8V24H6.4z" style="fill:#666;stroke-width:.264583"/><path d="M14.4 22.4h4.8V24h-4.8zM6.4 19.2h4.8v1.6H6.4zM14.4 19.2h4.8v1.6h-4.8z" style="display:inline;fill:#666;stroke-width:.264583"/><path d="M6.4 20.8h4.8v1.6H6.4zM14.4 20.8h4.8v1.6h-4.8z" style="display:inline;fill:#4d4d4d;stroke-width:.264583"/><path d="M6.4 12.8h12.8v1.6H6.4z" style="display:inline;fill:#666;stroke-width:.432062"/><path d="M6.4 9.6H8v1.6H6.4z" style="display:inline;fill:#666;stroke-width:.152757"/><path d="M11.2 9.6h3.2v1.6h-3.2z" style="display:inline;fill:#666;stroke-width:.216031"/><path d="M17.6 9.6h1.6v1.6h-1.6z" style="display:inline;fill:#666;stroke-width:.152757"/><path d="M6.4 16h12.8v1.6H6.4z" style="display:inline;fill:#666;stroke-width:.432062"/><path d="M6.4 14.4h12.8V16H6.4z" style="display:inline;fill:#4d4d4d;stroke-width:.432062"/></g></svg>