<?xml version="1.0" standalone="no"?>
<!DOCTYPE svg PUBLIC "-//W3C//DTD SVG 20010904//EN"
 "http://www.w3.org/TR/2001/REC-SVG-20010904/DTD/svg10.dtd">
<svg version="1.0" xmlns="http://www.w3.org/2000/svg"
 width="1024.000000pt" height="1024.000000pt" viewBox="0 0 1024.000000 1024.000000"
 preserveAspectRatio="xMidYMid meet">

<g transform="translate(0.000000,1024.000000) scale(0.100000,-0.100000)"
fill="#fff" stroke="none">
<path d="M3409 8370 c-77 -12 -175 -45 -262 -87 -81 -40 -283 -157 -309 -181
-23 -20 -23 -55 1 -106 11 -23 28 -61 39 -86 43 -100 52 -118 67 -130 8 -7 15
-17 15 -22 0 -14 68 -116 120 -178 47 -58 152 -160 164 -160 3 0 42 -25 86
-55 44 -30 84 -55 89 -55 6 0 33 -13 60 -30 28 -16 81 -41 118 -56 97 -38 100
-46 18 -41 -283 16 -614 113 -793 232 -30 19 -56 35 -58 35 -4 0 -70 48 -147
108 -27 20 -76 63 -110 95 -34 31 -67 57 -73 57 -25 0 -90 -118 -123 -221 -21
-66 -14 -150 19 -230 16 -41 39 -85 50 -99 11 -14 32 -43 47 -65 73 -111 326
-371 422 -435 21 -14 57 -40 81 -57 24 -18 49 -33 56 -33 7 0 14 -4 16 -9 2
-5 26 -20 53 -35 28 -14 57 -31 65 -36 18 -11 339 -163 448 -211 23 -10 61
-28 85 -39 24 -11 47 -20 51 -20 7 0 88 -34 116 -49 12 -6 166 -56 315 -102
17 -5 53 -12 80 -15 28 -4 56 -11 63 -17 20 -16 288 -15 304 1 6 6 20 12 31
12 10 0 44 12 75 26 31 14 77 34 102 44 25 10 71 30 102 44 31 14 63 26 70 26
8 0 18 4 23 8 23 19 94 35 150 35 64 -1 139 -25 285 -91 80 -36 214 -89 260
-103 53 -17 270 -17 303 -1 12 6 48 14 79 17 32 4 60 11 63 16 4 5 14 9 22 9
20 0 175 47 220 66 17 8 36 14 42 14 6 0 19 4 29 10 9 5 35 16 57 25 22 9 48
21 57 26 10 5 22 9 27 9 5 0 44 16 85 35 42 19 78 35 80 35 9 0 415 202 484
240 144 80 237 153 382 299 153 154 264 296 313 398 60 128 47 259 -40 408
-46 78 -52 78 -127 10 -75 -69 -121 -108 -181 -150 -23 -16 -62 -44 -86 -61
-96 -68 -238 -135 -344 -163 -17 -4 -39 -13 -50 -18 -11 -6 -42 -14 -70 -18
-27 -4 -54 -11 -60 -15 -5 -5 -37 -11 -70 -15 -33 -3 -94 -13 -135 -20 -92
-17 -201 -24 -194 -13 3 4 9 8 14 8 14 0 114 45 215 97 178 92 288 177 395
303 30 36 58 67 63 68 4 2 7 8 7 14 0 6 22 47 49 92 27 44 52 92 56 106 4 14
14 34 21 45 8 11 14 27 14 36 0 10 4 19 8 21 5 2 16 26 25 53 l17 50 -37 32
c-20 17 -59 43 -87 58 -28 15 -53 31 -56 35 -11 15 -201 107 -262 126 -29 9
-72 22 -95 30 -68 22 -236 27 -333 10 -122 -21 -223 -45 -234 -56 -6 -6 -17
-10 -25 -10 -9 0 -28 -6 -43 -14 -14 -8 -42 -19 -61 -25 -19 -7 -61 -25 -93
-41 -32 -17 -61 -30 -66 -30 -4 0 -33 -12 -65 -26 -32 -14 -71 -32 -88 -39
-16 -7 -41 -18 -55 -24 -74 -32 -225 -74 -350 -97 -108 -21 -523 -30 -630 -15
-156 23 -198 31 -305 61 -108 31 -131 39 -232 86 -28 13 -54 24 -57 24 -3 0
-38 15 -78 34 -135 62 -168 76 -178 76 -6 0 -18 4 -28 10 -43 24 -92 41 -152
55 -36 8 -83 19 -105 25 -56 14 -259 21 -326 10z"/>
<path d="M2024 6935 c-65 -70 -164 -174 -219 -233 -115 -124 -356 -362 -446
-442 -34 -30 -72 -64 -83 -75 -81 -79 -582 -445 -609 -445 -4 0 -38 -20 -76
-45 -38 -25 -72 -45 -76 -45 -3 0 -35 -20 -71 -45 -35 -25 -66 -45 -69 -45 -3
0 -41 -28 -85 -61 -99 -76 -175 -158 -215 -230 -26 -48 -30 -63 -29 -139 0
-75 3 -91 29 -137 36 -65 127 -159 229 -238 43 -33 95 -74 115 -91 20 -17 52
-41 71 -54 19 -13 44 -32 55 -42 16 -15 117 -95 170 -136 6 -4 77 -61 159
-127 82 -66 161 -129 175 -139 14 -11 51 -41 81 -66 30 -26 64 -54 75 -63 57
-45 231 -191 235 -197 3 -4 37 -33 75 -65 39 -32 93 -80 120 -105 28 -26 88
-82 135 -126 232 -213 746 -750 880 -919 17 -22 35 -42 38 -45 4 -3 19 -21 33
-40 15 -19 37 -47 50 -61 29 -32 58 -69 171 -219 48 -63 97 -127 108 -141 12
-14 29 -37 38 -51 9 -14 51 -72 92 -129 41 -57 84 -118 95 -136 53 -86 119
-173 131 -173 8 0 14 3 14 6 0 8 -88 185 -99 198 -5 6 -28 47 -52 91 -23 44
-55 98 -71 119 -15 21 -28 42 -28 47 0 7 -52 90 -130 204 -22 33 -61 92 -87
130 -25 39 -65 95 -87 125 -23 30 -49 67 -59 82 -19 30 -203 263 -270 343
-325 384 -788 841 -1267 1250 -58 50 -110 95 -116 100 -6 6 -38 33 -70 60
-264 226 -431 415 -479 540 -11 29 -20 83 -23 130 -7 169 71 278 388 544 61
52 422 410 520 517 110 119 270 307 331 388 140 186 236 330 300 453 31 59 41
85 33 93 -8 8 -45 -25 -130 -115z"/>
<path d="M8106 7041 c-3 -5 5 -28 19 -52 13 -24 33 -62 45 -84 41 -80 134
-219 252 -376 32 -42 76 -99 99 -125 23 -27 60 -71 83 -98 22 -27 57 -66 76
-86 19 -20 62 -68 96 -106 100 -113 473 -483 545 -540 166 -132 279 -256 330
-359 21 -43 24 -64 24 -155 0 -80 -4 -111 -17 -130 -9 -14 -19 -36 -23 -50
-11 -37 -51 -90 -144 -194 -91 -102 -148 -156 -320 -304 -29 -26 -74 -65 -100
-88 -25 -22 -73 -62 -106 -89 -33 -27 -87 -74 -120 -105 -34 -30 -101 -91
-150 -135 -150 -134 -251 -231 -470 -451 -186 -187 -246 -250 -390 -409 -20
-22 -71 -83 -113 -135 -42 -52 -99 -122 -127 -156 -69 -83 -136 -171 -149
-193 -11 -18 -49 -72 -96 -135 -70 -96 -255 -379 -271 -416 -6 -14 -16 -32
-24 -40 -15 -17 -82 -137 -162 -288 -34 -64 -51 -108 -46 -113 12 -12 26 4 96
111 72 109 133 196 227 322 41 55 82 110 90 122 34 51 217 284 236 301 6 6 24
28 40 50 16 22 36 47 45 55 9 8 56 62 105 119 269 316 737 787 1033 1042 41
35 113 98 160 139 47 42 106 91 131 110 25 19 74 59 110 90 36 30 77 64 92 75
23 17 156 125 212 172 11 9 38 30 60 47 23 17 50 39 61 48 11 9 49 39 85 67
84 64 145 112 196 153 22 18 57 47 78 63 132 104 166 133 209 179 78 83 100
136 101 236 1 83 0 87 -41 155 -57 96 -186 215 -318 295 -22 13 -41 28 -43 32
-2 4 -8 8 -13 8 -20 0 -347 206 -474 300 -112 82 -200 148 -220 167 -12 10
-41 34 -65 53 -148 114 -473 436 -770 760 -139 152 -151 163 -164 141z m733
-835 c-3 -3 -11 5 -18 17 -13 21 -12 21 5 5 10 -10 16 -20 13 -22z m111 -112
c0 -3 -15 7 -34 23 -19 15 -33 30 -30 34 4 7 64 -47 64 -57z m25 -14 c3 -5 1
-10 -4 -10 -6 0 -11 5 -11 10 0 6 2 10 4 10 3 0 8 -4 11 -10z m40 -40 c10 -11
22 -17 26 -14 5 3 9 1 9 -5 0 -20 -16 -19 -43 4 -15 13 -27 27 -27 30 0 11 18
4 35 -15z m161 -135 c16 -11 36 -22 46 -25 16 -5 16 -7 -5 -30 -12 -14 -19
-21 -14 -14 7 11 -34 64 -50 64 -13 0 -69 53 -81 77 -21 38 -13 36 32 -9 24
-23 56 -52 72 -63z m135 -97 c14 -16 33 -28 43 -28 9 0 21 -11 27 -24 7 -15
17 -22 25 -19 10 4 12 0 8 -11 -8 -20 -11 -20 -41 3 -13 11 -30 18 -38 15 -7
-3 -18 4 -25 15 -6 12 -17 21 -25 21 -8 0 -15 7 -15 15 0 8 -7 15 -15 15 -8 0
-15 5 -15 11 0 5 -6 7 -12 3 -7 -4 -4 2 6 14 21 24 29 21 77 -30z m84 -120
c19 -22 19 -22 -10 2 -48 40 -51 43 -30 32 11 -6 29 -21 40 -34z m52 26 c-9
-9 51 -56 63 -49 5 3 10 -1 10 -10 0 -12 6 -15 23 -10 15 5 12 0 -13 -18 -36
-26 -67 -20 -56 10 3 8 2 12 -3 9 -4 -3 -18 6 -31 19 -19 20 -21 27 -10 40 7
8 15 15 18 15 3 0 3 -3 -1 -6z m-2 -84 l20 -25 -22 19 c-13 11 -23 24 -23 29
0 6 1 8 3 6 1 -2 11 -15 22 -29z m152 -40 c32 -29 93 -107 93 -119 0 -4 -9 -7
-19 -7 -11 0 -17 4 -15 8 3 4 0 8 -5 8 -12 0 -58 38 -99 80 -13 14 -29 24 -35
22 -6 -2 -3 6 7 17 25 27 35 26 73 -9z m92 -46 c17 -10 31 -22 31 -27 0 -4 5
-5 10 -2 17 10 11 -7 -7 -20 -14 -10 -21 -5 -50 37 -18 28 -33 55 -32 62 0 6
4 1 9 -11 5 -11 22 -29 39 -39z m81 -44 c-13 -9 -10 -14 15 -33 16 -12 36 -30
44 -39 16 -19 37 -25 26 -8 -3 6 -4 10 -1 10 2 0 14 -16 26 -35 l22 -35 -26
-31 c-14 -17 -26 -34 -26 -39 0 -4 -7 -10 -15 -14 -13 -5 -13 -3 0 18 14 21
14 23 -10 34 -29 14 -43 24 -90 70 -22 22 -38 31 -47 26 -9 -5 -8 -2 2 12 22
28 73 73 85 73 6 1 3 -4 -5 -9z m51 -37 c13 -16 12 -17 -3 -4 -10 7 -18 15
-18 17 0 8 8 3 21 -13z m149 -184 c30 -34 61 -70 68 -81 13 -18 15 -18 29 -1
13 17 13 16 3 -4 -16 -34 -29 -37 -54 -14 -28 26 -31 26 -68 -1 -30 -21 -31
-21 -44 -2 -7 10 -17 24 -22 29 -18 22 -25 38 -14 31 8 -5 12 2 12 19 0 18 -4
24 -12 18 -8 -4 -7 2 3 17 8 14 19 31 23 38 12 20 19 15 76 -49z m-70 -140 c0
-3 -6 -11 -13 -18 -11 -8 -13 -3 -13 25 1 30 2 33 13 17 7 -9 13 -20 13 -24z
m134 -1 c40 -38 42 -42 27 -58 -36 -37 -61 -71 -61 -81 0 -5 -6 -7 -12 -4 -7
4 -4 -1 7 -11 18 -15 18 -16 2 -10 -19 6 -57 -9 -69 -28 -5 -7 -13 -4 -23 9
-45 58 -55 75 -46 75 6 0 11 5 11 11 0 5 -6 7 -12 3 -8 -5 -7 0 2 11 8 11 20
26 25 34 24 34 84 91 95 91 6 0 31 -19 54 -42z m126 -3 c0 -8 -4 -15 -10 -15
-5 0 -10 7 -10 15 0 8 5 15 10 15 6 0 10 -7 10 -15z m-309 -58 c-10 -9 -11 -8
-5 6 3 10 9 15 12 12 3 -3 0 -11 -7 -18z m35 -129 c14 -28 13 -30 -21 -73 -32
-39 -39 -43 -56 -32 -19 12 -19 12 0 27 18 13 40 98 32 124 -5 18 31 -18 45
-46z m104 8 c0 -2 -7 -7 -16 -10 -8 -3 -12 -2 -9 4 6 10 25 14 25 6z m-87 -78
c-11 -13 -27 -34 -36 -48 -10 -13 -17 -20 -17 -15 0 12 58 85 67 85 4 0 -3
-10 -14 -22z m-92 -65 c13 -14 18 -23 12 -19 -7 4 -13 3 -13 -3 0 -5 -9 -12
-19 -16 -10 -3 -22 -17 -25 -31 -4 -14 -11 -22 -16 -19 -6 3 -10 -3 -10 -14 0
-12 -9 -26 -20 -33 -11 -7 -20 -18 -20 -25 0 -21 -15 -15 -38 16 -18 24 -18
28 -4 27 9 0 23 13 32 30 8 17 21 29 27 27 19 -7 27 25 12 44 -9 11 -10 14 -2
10 7 -5 20 1 30 12 24 26 26 25 54 -6z m-151 -172 c8 -15 -3 -26 -70 -72 -44
-29 -80 -57 -80 -61 0 -17 -28 -7 -33 12 -3 11 -1 20 4 20 10 0 70 51 102 88
12 12 27 22 34 22 7 0 13 5 13 11 0 14 18 2 30 -20z m-207 -185 c-40 -48 -61
-60 -79 -46 -11 10 -12 16 -3 26 6 8 17 14 24 14 7 0 23 13 36 29 17 22 27 27
36 19 10 -8 7 -17 -14 -42z m-80 -62 c6 -6 -59 -64 -72 -64 -3 0 -17 -10 -31
-22 -14 -13 -34 -30 -44 -38 -18 -14 -19 -14 -6 10 15 28 106 123 96 100 -4
-9 -1 -8 6 3 13 17 39 23 51 11z m-177 -146 c10 -12 14 -19 8 -15 -6 3 -42
-21 -80 -54 -96 -83 -92 -80 -99 -69 -3 5 24 38 61 72 37 35 72 68 78 75 6 7
11 12 12 13 0 0 9 -10 20 -22z m-183 -159 c-4 -4 -36 -30 -70 -57 -34 -27 -60
-52 -57 -55 3 -3 -3 -10 -14 -16 -11 -6 -22 -7 -26 -4 -10 11 -7 33 5 33 11 0
28 14 109 92 25 24 39 31 48 24 7 -5 9 -13 5 -17z m-173 -150 c0 -5 -7 -9 -16
-9 -10 0 -14 -6 -11 -14 4 -10 1 -13 -8 -10 -8 3 -21 -6 -30 -20 -17 -26 -39
-34 -49 -17 -6 10 95 90 107 84 4 -2 7 -8 7 -14z m-109 -96 c10 -12 10 -14 1
-9 -7 4 -24 -5 -45 -26 -17 -19 -52 -49 -76 -68 -39 -30 -42 -31 -31 -10 16
29 115 130 128 130 5 0 16 -8 23 -17z m-170 -150 c8 -9 9 -14 3 -10 -6 3 -33
-16 -59 -43 -27 -28 -54 -50 -61 -50 -6 0 -19 -10 -27 -22 -9 -13 -16 -17 -16
-10 -1 11 130 152 141 152 3 0 12 -8 19 -17z m-161 -153 c3 0 -7 -8 -22 -16
-16 -8 -28 -22 -28 -30 0 -8 -4 -12 -10 -9 -5 3 -10 1 -10 -5 0 -15 -26 -40
-41 -40 -7 0 4 17 24 38 22 23 35 45 32 53 -4 11 2 14 22 13 16 -1 30 -3 33
-4z m-137 -137 c-13 -8 -23 -22 -23 -31 0 -8 -3 -12 -7 -9 -3 4 -13 1 -22 -5
-9 -7 0 5 18 25 19 20 40 37 45 36 6 0 1 -7 -11 -16z m-73 -37 c0 -2 -8 -10
-17 -17 -16 -13 -17 -12 -4 4 13 16 21 21 21 13z m-7 -51 c-3 -9 -8 -14 -10
-11 -3 3 -2 9 2 15 9 16 15 13 8 -4z m-39 -10 c-4 -8 -11 -12 -16 -9 -6 4 -5
10 3 15 19 12 19 11 13 -6z m-16 -36 c3 -8 1 -11 -3 -7 -7 7 -65 -53 -65 -68
0 -5 -10 -14 -22 -19 -18 -8 -27 -19 -45 -54 -1 -1 -7 0 -14 5 -9 5 0 18 30
44 39 34 42 40 31 59 -10 20 -10 22 7 13 15 -9 22 -5 38 19 21 30 36 33 43 8z
m-158 -170 c0 -6 -4 -8 -9 -5 -9 6 -34 -20 -74 -74 -12 -17 -16 -19 -13 -7 3
10 1 28 -6 40 -10 20 -10 21 6 7 16 -12 19 -12 28 3 24 43 68 66 68 36z m-129
-133 c-14 -15 -20 -30 -15 -37 5 -9 2 -10 -10 -6 -14 6 -17 3 -12 -9 5 -12 2
-15 -9 -10 -10 4 -19 -3 -27 -19 -6 -14 -15 -25 -20 -25 -13 0 29 58 71 97 41
38 55 44 22 9z m-134 -151 c0 -8 -6 -15 -13 -15 -15 0 -39 -39 -36 -58 2 -7
-2 -11 -9 -10 -7 2 -15 -6 -18 -17 -9 -29 -36 -27 -36 2 0 23 7 27 34 23 9 -1
12 4 7 15 -3 9 -2 13 4 10 11 -7 32 29 23 39 -3 3 -1 6 5 6 7 0 12 7 12 15 0
8 6 12 13 9 8 -3 14 -11 14 -19z m-127 -139 c0 5 5 1 11 -9 7 -11 7 -23 2 -28
-5 -5 -17 5 -28 24 -16 27 -16 30 -2 18 9 -7 17 -10 17 -5z m-30 -51 c-6 -8
-8 -20 -4 -26 5 -9 2 -10 -10 -6 -14 5 -17 3 -12 -8 3 -9 0 -15 -8 -15 -9 0
-12 -7 -9 -20 3 -11 1 -20 -3 -20 -18 0 -32 16 -35 40 -3 21 0 25 20 22 19 -2
22 1 18 19 -4 15 -2 19 8 15 8 -3 17 -1 20 4 4 6 11 10 17 10 7 0 6 -5 -2 -15z
m-86 -112 c3 -7 1 -13 -4 -13 -6 0 -10 -7 -10 -15 0 -9 -7 -18 -15 -21 -8 -4
-12 -10 -9 -15 3 -5 -2 -9 -11 -9 -9 0 -15 -6 -13 -12 5 -14 -15 -38 -31 -38
-6 0 -11 -9 -11 -20 0 -26 -12 -25 -36 2 -16 18 -17 21 -2 15 12 -4 15 -2 11
9 -4 10 0 12 11 8 12 -5 15 -2 9 12 -5 13 -3 15 7 9 10 -6 12 -4 7 8 -3 10 -2
17 3 17 6 0 9 6 8 13 -2 6 3 11 10 9 8 -1 18 10 24 26 11 29 43 38 52 15z
m-143 -193 c-8 -4 -16 -15 -17 -23 -4 -27 -48 -78 -62 -72 -7 3 -19 5 -25 5
-8 0 -8 3 -2 8 6 4 21 24 35 44 14 21 31 38 38 38 6 0 12 10 12 22 0 21 1 21
18 5 14 -15 15 -19 3 -27z m-98 -138 c-10 -15 -23 -31 -29 -37 -6 -5 -22 -28
-35 -49 -36 -59 -36 -59 -48 -52 -12 8 44 105 65 113 8 3 14 10 14 16 0 16 31
47 41 41 5 -3 1 -17 -8 -32z m-143 -205 c-42 -60 -56 -77 -63 -77 -4 0 7 20
23 44 17 24 30 48 30 53 0 14 22 33 32 27 4 -3 -5 -24 -22 -47z m-90 -129
c-23 -35 -23 -31 -1 15 8 15 16 25 19 22 2 -2 -5 -19 -18 -37z"/>
<path d="M2320 6775 c0 -30 58 -182 106 -275 83 -164 175 -307 291 -454 18
-23 44 -57 57 -76 13 -19 41 -53 61 -75 20 -22 49 -56 63 -75 15 -19 39 -48
54 -65 15 -16 46 -53 70 -81 71 -85 139 -164 213 -249 127 -145 274 -324 425
-515 189 -238 386 -542 509 -783 24 -47 40 -67 54 -67 13 0 17 5 13 18 -3 9
-8 35 -12 57 -3 22 -12 54 -19 70 -7 17 -25 68 -40 115 -15 47 -40 110 -56
140 -16 30 -29 58 -29 61 0 9 -112 207 -153 272 -20 31 -37 59 -37 61 0 6
-124 196 -148 226 -10 14 -22 35 -26 48 -4 12 -12 22 -17 22 -5 0 -9 5 -9 11
0 6 -13 30 -30 54 -16 24 -30 48 -30 53 0 5 -7 16 -17 23 -9 8 -23 28 -30 44
-21 43 -45 85 -80 141 -52 83 -197 378 -228 464 -7 19 -24 60 -38 90 -14 30
-35 78 -47 106 l-22 52 -141 70 c-78 39 -174 92 -213 119 -40 26 -97 65 -128
86 -30 20 -122 103 -202 182 -81 80 -151 145 -156 145 -4 0 -8 -7 -8 -15z"/>
<path d="M7830 6698 c-69 -74 -189 -185 -257 -239 -7 -5 -54 -36 -105 -69 -51
-32 -98 -63 -104 -67 -23 -17 -220 -114 -231 -113 -7 0 -13 -4 -13 -10 0 -5
-6 -10 -14 -10 -8 0 -21 -17 -29 -37 -21 -54 -66 -155 -77 -175 -6 -10 -10
-23 -10 -29 0 -19 -159 -346 -215 -444 -13 -22 -36 -64 -51 -92 -16 -29 -32
-53 -36 -53 -4 0 -8 -6 -8 -12 -1 -13 -39 -74 -200 -323 -41 -64 -79 -123 -85
-132 -5 -9 -33 -53 -61 -97 -56 -89 -58 -93 -155 -286 -66 -132 -166 -420
-154 -441 14 -21 32 -5 65 59 19 37 44 83 56 102 12 19 50 85 84 145 35 61 75
126 89 145 14 19 31 42 36 51 34 55 78 117 151 214 124 165 163 214 234 300
157 187 195 233 236 280 23 28 61 73 84 100 23 28 58 68 78 91 21 22 57 65 82
94 25 30 63 75 85 101 169 199 405 505 405 525 0 3 10 20 22 37 45 63 147 269
186 376 49 133 31 134 -88 9z"/>
<path d="M1843 6355 c-3 -9 1 -23 9 -33 8 -9 28 -32 43 -50 41 -46 140 -105
210 -125 82 -22 254 -41 299 -33 48 9 42 27 -15 42 -24 6 -69 19 -99 27 -30 9
-81 23 -112 31 -68 19 -230 94 -277 130 -40 30 -49 32 -58 11z"/>
<path d="M8380 6355 c-20 -19 -204 -113 -255 -130 -22 -7 -85 -25 -140 -40
-153 -41 -166 -46 -162 -58 6 -19 44 -20 167 -7 146 15 209 34 291 86 73 46
145 125 135 149 -7 19 -18 19 -36 0z"/>
<path d="M1685 6071 c-6 -11 15 -61 27 -61 4 0 8 -6 8 -12 0 -7 23 -37 52 -66
132 -137 269 -203 502 -242 97 -16 327 -30 370 -23 43 7 48 30 9 39 -16 3 -50
12 -78 19 -27 8 -70 17 -95 21 -24 3 -51 10 -60 15 -8 4 -80 27 -160 50 -196
58 -403 154 -526 246 -34 26 -40 27 -49 14z"/>
<path d="M8465 6018 c-201 -122 -278 -155 -525 -227 -41 -13 -86 -26 -100 -31
-14 -5 -50 -14 -80 -19 -110 -22 -180 -44 -180 -57 0 -22 259 -18 390 5 277
51 385 102 519 244 56 60 97 125 85 137 -5 4 -53 -19 -109 -52z"/>
<path d="M3627 6008 c-4 -14 21 -93 54 -166 11 -24 27 -62 36 -85 18 -47 88
-201 105 -232 6 -11 29 -51 50 -90 45 -81 116 -183 172 -246 126 -144 247
-259 272 -259 20 0 18 35 -5 84 -39 86 -98 261 -127 376 -28 114 -41 212 -49
380 -4 80 -11 130 -19 138 -7 7 -37 17 -67 22 -70 11 -90 15 -234 50 -176 42
-182 43 -188 28z"/>
<path d="M6585 6013 c-11 -2 -65 -15 -119 -29 -93 -24 -119 -30 -256 -55 -30
-5 -60 -15 -67 -21 -9 -7 -13 -43 -13 -123 0 -61 -4 -136 -9 -166 -5 -30 -15
-85 -21 -124 -6 -38 -18 -92 -26 -120 -55 -183 -81 -259 -110 -328 -55 -127
-41 -149 45 -73 187 166 350 380 445 581 13 28 37 80 55 116 17 36 31 73 31
82 0 8 3 17 8 19 4 2 17 30 30 63 13 33 30 75 38 93 18 41 19 92 2 91 -7 -1
-22 -3 -33 -6z"/>
<path d="M4944 5759 c-3 -5 -7 -280 -10 -611 -5 -614 -14 -826 -39 -933 -7
-33 -21 -96 -30 -140 -9 -44 -21 -98 -27 -120 -24 -89 -36 -170 -27 -180 21
-21 124 112 182 235 63 136 79 178 112 300 10 36 21 69 25 73 4 5 13 -15 20
-45 37 -161 101 -316 178 -433 65 -98 102 -137 117 -125 15 13 10 48 -50 305
-57 241 -62 322 -69 1064 -4 333 -9 607 -12 610 -9 10 -364 9 -370 0z"/>
<path d="M1340 5673 c0 -31 130 -168 234 -247 79 -60 207 -131 276 -153 211
-66 315 -78 690 -78 250 0 344 8 338 27 -7 20 -30 26 -188 48 -147 20 -222 34
-370 66 -36 7 -101 21 -145 29 -44 9 -91 18 -103 21 -13 3 -63 18 -110 35 -48
16 -107 36 -132 43 -58 17 -182 73 -339 153 -117 60 -151 72 -151 56z"/>
<path d="M8830 5648 c-36 -18 -67 -35 -70 -38 -9 -9 -173 -85 -255 -118 -195
-78 -319 -112 -611 -167 -39 -7 -89 -18 -110 -23 -22 -6 -66 -13 -99 -17 -33
-3 -95 -13 -139 -21 -43 -8 -92 -14 -110 -14 -44 0 -63 -14 -47 -34 7 -8 20
-15 29 -15 304 -9 575 -8 677 4 246 28 427 97 594 223 106 81 229 211 231 245
0 14 -25 7 -90 -25z m0 -53 c-7 -8 -16 -12 -21 -9 -13 8 -1 24 18 24 13 0 13
-3 3 -15z m-55 -34 c3 -6 -4 -15 -15 -21 -13 -7 -20 -7 -20 0 0 5 7 10 16 10
8 0 12 5 9 10 -3 6 -4 10 -1 10 3 0 7 -4 11 -9z m-68 -55 c-6 -16 -37 -12 -37
5 0 4 7 6 15 3 8 -4 15 -1 15 7 0 7 3 10 6 6 4 -3 4 -13 1 -21z m-37 -16 c8
-5 11 -10 5 -10 -5 0 -17 5 -25 10 -8 5 -10 10 -5 10 6 0 17 -5 25 -10z m-174
-95 c-22 -16 -57 -21 -40 -6 7 8 29 15 54 20 3 0 -4 -6 -14 -14z m-171 -65
c-3 -5 -11 -10 -16 -10 -6 0 -7 5 -4 10 3 6 11 10 16 10 6 0 7 -4 4 -10z
m-135 -30 c0 -5 -5 -10 -11 -10 -5 0 -7 5 -4 10 3 6 8 10 11 10 2 0 4 -4 4
-10z"/>
<path d="M930 5246 c0 -27 168 -207 231 -248 15 -9 47 -34 72 -55 84 -70 173
-120 369 -207 20 -9 43 -16 52 -16 8 0 33 -6 53 -14 55 -20 225 -54 318 -63
128 -13 735 -9 888 5 137 13 187 23 187 41 0 14 -36 22 -180 36 -273 28 -886
127 -1000 163 -19 5 -53 13 -75 17 -43 6 -253 73 -270 85 -5 4 -24 10 -42 13
-17 4 -51 15 -75 26 -24 11 -98 43 -165 71 -67 28 -170 76 -228 106 -110 56
-135 64 -135 40z"/>
<path d="M3126 5252 c-3 -4 2 -19 9 -33 8 -13 21 -37 29 -54 8 -16 33 -59 55
-95 22 -36 47 -78 56 -95 8 -16 25 -46 36 -65 61 -99 220 -438 244 -520 4 -14
11 -29 15 -35 4 -5 11 -26 15 -45 4 -19 11 -39 15 -45 8 -10 59 -193 87 -310
8 -33 21 -109 29 -170 26 -189 18 -892 -12 -1120 -2 -16 -8 -75 -14 -130 -5
-55 -14 -127 -20 -160 -5 -33 -14 -98 -20 -145 -42 -331 -50 -396 -50 -417 0
-27 25 -31 33 -6 3 10 22 63 42 118 20 55 38 109 40 119 5 21 24 83 32 106 3
8 7 20 8 25 3 11 27 94 32 110 6 19 67 280 83 355 11 48 41 214 59 320 72 430
63 910 -23 1200 -35 121 -43 141 -96 244 -132 257 -398 614 -599 803 -54 51
-74 62 -85 45z"/>
<path d="M7063 5178 c-111 -115 -130 -135 -195 -214 -97 -118 -277 -372 -301
-424 -4 -8 -15 -28 -25 -45 -61 -99 -109 -213 -161 -377 -44 -139 -72 -552
-53 -773 23 -255 33 -343 47 -415 8 -41 27 -136 41 -210 15 -74 30 -156 35
-182 4 -27 10 -52 13 -57 3 -5 12 -37 20 -72 38 -168 147 -522 180 -587 9 -18
23 -31 29 -29 14 5 12 83 -4 162 -5 28 -14 84 -19 125 -5 41 -13 102 -19 135
-11 66 -35 278 -56 505 -7 80 -17 181 -21 225 -10 99 -11 682 -1 750 26 181
58 348 83 427 57 182 98 304 105 314 5 6 20 39 33 75 49 127 179 382 260 508
15 24 38 63 50 85 12 23 30 52 39 67 9 14 20 39 23 57 11 53 -16 40 -103 -50z
m-597 -1452 c0 -14 -5 -21 -9 -17 -4 4 -5 15 -1 24 9 24 12 21 10 -7z m-6 -69
c0 -12 -4 -28 -9 -36 -6 -10 -9 -1 -8 26 2 41 17 50 17 10z m30 -287 c0 -5 -5
-10 -11 -10 -5 0 -7 5 -4 10 3 6 8 10 11 10 2 0 4 -4 4 -10z m-14 -61 c-13
-19 -13 -24 2 -47 9 -15 11 -23 5 -19 -26 16 -33 43 -17 65 8 12 17 22 20 22
3 0 -2 -10 -10 -21z m-7 -80 c13 -18 19 -29 14 -26 -6 4 -10 -6 -9 -22 1 -22
4 -27 13 -19 7 6 10 15 6 21 -3 6 -1 7 5 3 7 -4 -1 -23 -24 -54 -47 -62 -47
-61 -30 -21 19 46 22 99 8 127 -18 31 -10 27 17 -9z m25 -110 c-13 -21 -14
-70 -2 -92 10 -20 10 -21 -6 -8 -32 27 -36 45 -14 79 11 18 22 32 25 32 2 0 1
-5 -3 -11z m-10 -130 c13 -21 14 -29 5 -24 -11 7 -12 6 -2 -6 10 -12 8 -20
-10 -42 l-22 -28 0 65 c0 54 -4 69 -25 93 l-25 28 30 -27 c17 -15 39 -41 49
-59z m15 -157 c1 -18 6 -42 12 -54 6 -11 9 -22 7 -24 -3 -2 -16 18 -30 46 -14
27 -29 46 -33 42 -4 -4 0 9 10 28 16 31 19 33 26 15 4 -11 8 -35 8 -53z m3
-106 c-3 -5 -9 -1 -13 10 -12 31 -10 39 5 19 8 -11 12 -24 8 -29z m33 -123 c4
-23 4 -50 0 -60 -5 -14 -10 -5 -20 32 -17 65 -20 105 -9 130 9 21 9 22 29
-102z m35 -257 c-5 -5 -12 13 -15 40 -4 27 -10 53 -13 58 -8 14 -10 58 -3 76
2 8 13 -26 22 -75 10 -50 14 -94 9 -99z m34 -36 c-1 -8 -5 -23 -9 -32 -5 -13
-2 -18 10 -18 13 0 16 -6 12 -22 -3 -12 -2 -29 3 -38 5 -9 5 -22 0 -30 -5 -8
-3 -19 6 -27 8 -8 14 -21 14 -29 0 -12 -4 -12 -20 -2 -12 8 -15 15 -8 19 6 4
4 11 -8 18 -11 6 -14 11 -9 11 6 0 4 4 -3 9 -7 4 -14 14 -15 22 -2 8 -5 19 -8
24 -8 13 -4 63 4 72 12 11 8 35 -5 27 -7 -4 -8 -3 -4 5 10 16 41 9 40 -9z m40
-264 c15 -37 30 -169 16 -145 -5 9 -14 36 -19 60 -6 24 -17 66 -26 93 -13 43
-13 47 1 35 8 -7 21 -26 28 -43z"/>
<path d="M9150 5184 c-80 -41 -165 -81 -190 -91 -25 -9 -68 -26 -96 -39 -233
-103 -569 -191 -954 -250 -91 -13 -223 -34 -295 -45 -71 -11 -179 -24 -240
-30 -192 -18 -256 -40 -179 -61 99 -28 795 -45 1039 -25 90 8 219 32 300 56
17 6 49 15 73 21 75 19 211 84 317 151 148 94 225 159 332 277 123 139 105
144 -107 36z m140 33 c0 -2 -19 -21 -41 -42 -26 -25 -37 -32 -30 -18 13 25 71
74 71 60z m-96 -98 c-3 -5 -9 -7 -14 -4 -4 3 -10 0 -12 -7 -5 -14 -38 -3 -38
13 0 6 7 8 16 5 11 -4 15 -2 11 8 -3 8 -3 17 0 20 9 9 44 -25 37 -35z m-54
-28 c0 -11 -15 -26 -27 -27 -7 -1 -20 -2 -28 -2 -8 -1 -15 -9 -15 -17 0 -8 -6
-12 -13 -9 -8 3 -20 -2 -27 -10 -7 -9 -17 -13 -22 -10 -5 3 -1 15 9 27 10 11
12 17 4 12 -10 -6 -12 -4 -7 4 5 7 14 10 21 7 20 -7 76 17 71 30 -3 7 3 10 15
7 10 -3 19 -8 19 -12z m-150 -87 c8 -8 9 -14 4 -12 -5 1 -37 -14 -70 -35 -34
-20 -65 -37 -70 -37 -4 0 -15 -6 -23 -14 -13 -12 -19 -12 -34 -2 -16 13 -16
14 5 28 13 8 41 21 63 28 22 7 56 23 75 36 19 13 36 23 36 23 1 1 7 -6 14 -15z
m-211 -108 c10 -11 -1 -19 -56 -41 -110 -44 -145 -56 -150 -51 -6 5 20 56 27
53 3 0 25 7 50 17 25 11 53 20 62 21 10 1 21 5 25 8 11 11 30 8 42 -7z m-214
-56 c-3 -5 -12 -10 -18 -10 -7 0 -6 4 3 10 19 12 23 12 15 0z m-11 -39 c18
-20 18 -20 -20 -17 -22 1 -46 -1 -54 -5 -26 -14 -80 -28 -80 -22 0 14 45 53
61 53 28 0 49 11 43 22 -10 16 29 -8 50 -31z m-144 -5 c0 -1 -14 -15 -32 -32
-17 -16 -28 -23 -24 -17 5 9 2 11 -8 7 -9 -3 -16 -11 -16 -17 0 -5 -8 -3 -18
6 -24 22 -34 21 -66 -4 -15 -12 -30 -19 -33 -15 -4 3 0 6 8 7 8 0 3 5 -11 11
l-25 11 30 8 c85 22 195 42 195 35z m-231 -54 c8 -15 2 -17 -57 -18 -37 0 -93
-5 -124 -11 -32 -5 -58 -6 -58 -2 0 12 21 22 54 25 90 8 147 17 152 25 7 12
21 3 33 -19z m-254 -20 c-3 -3 -11 0 -18 7 -9 10 -8 11 6 5 10 -3 15 -9 12
-12z m374 9 c10 -7 7 -9 -12 -8 -14 1 -23 5 -20 10 6 9 15 9 32 -2z m-459 -4
c0 -2 -12 -14 -27 -28 l-28 -24 24 28 c23 25 31 32 31 24z m51 -14 c13 -16 12
-17 -3 -4 -10 7 -18 15 -18 17 0 8 8 3 21 -13z m-127 -14 c-27 -11 -34 -10
-34 0 0 11 31 20 44 13 5 -3 1 -9 -10 -13z m-419 -9 c-3 -5 -25 -9 -48 -8
l-42 1 45 7 c25 4 46 8 48 8 2 1 0 -2 -3 -8z"/>
<path d="M4291 4451 c-11 -7 -10 -16 8 -53 11 -24 21 -48 21 -52 0 -4 6 -22
14 -39 12 -29 27 -82 72 -272 8 -33 25 -132 38 -220 33 -216 71 -318 154 -407
87 -93 243 -162 437 -192 93 -14 107 -14 205 3 267 47 425 142 496 297 15 33
31 67 36 78 14 27 41 145 43 191 2 22 5 51 8 65 3 14 13 72 22 130 9 58 23
125 31 150 7 25 23 79 34 120 12 41 32 101 47 133 29 69 23 85 -29 68 -49 -16
-167 -110 -211 -167 -73 -96 -94 -159 -127 -386 -34 -230 -68 -315 -170 -418
-50 -50 -87 -77 -160 -113 -55 -27 -109 -47 -128 -47 -69 0 -243 99 -314 180
-21 23 -38 44 -38 47 0 3 -13 27 -28 52 -33 54 -69 186 -77 286 -4 39 -10 81
-15 95 -4 14 -13 57 -20 95 -17 97 -62 177 -143 257 -92 90 -175 138 -206 119z"/>
<path d="M1310 4387 c0 -9 15 -26 33 -38 17 -13 34 -27 35 -31 2 -4 9 -8 15
-8 6 0 20 -8 31 -19 28 -25 177 -103 251 -130 67 -26 219 -68 280 -79 70 -12
415 -8 500 6 111 19 343 70 445 98 126 34 322 94 345 104 11 5 32 14 48 20 15
5 27 14 27 20 0 25 -21 24 -320 -10 -282 -33 -453 -43 -725 -43 -250 0 -307 3
-415 21 -249 42 -356 62 -407 76 -29 8 -73 18 -98 21 -37 6 -45 4 -45 -8z"/>
<path d="M8830 4379 c-154 -41 -410 -83 -605 -99 -139 -12 -508 -6 -655 11
-47 5 -134 14 -195 19 -60 5 -181 16 -269 25 -109 12 -162 13 -169 6 -7 -7 2
-15 29 -27 21 -9 46 -20 54 -24 9 -4 79 -26 155 -49 77 -23 169 -51 205 -61
36 -11 73 -20 81 -20 8 0 35 -6 60 -14 39 -12 142 -32 264 -52 22 -3 56 -9 75
-12 46 -9 395 -9 440 0 99 18 143 30 225 57 212 70 512 264 403 260 -13 0 -57
-10 -98 -20z m55 -26 c-16 -8 -41 -25 -54 -37 l-24 -21 19 26 c10 15 30 31 44
37 39 16 48 13 15 -5z m-85 -33 c-23 -33 -36 -36 -63 -16 -16 12 -16 14 -1 20
9 3 20 4 25 0 5 -3 9 -1 9 5 0 5 10 12 23 14 12 2 23 5 25 6 2 0 -6 -12 -18
-29z m-1713 -16 c-3 -3 -12 -4 -19 -1 -8 3 -5 6 6 6 11 1 17 -2 13 -5z m118
-15 c5 -7 -5 -8 -32 -3 -51 9 -54 14 -10 14 20 0 39 -5 42 -11z m1495 -11
c-13 -5 -30 -14 -37 -20 -7 -6 -13 -7 -13 -2 0 13 53 42 64 36 5 -3 -1 -9 -14
-14z m-1354 -25 c-10 -10 -19 5 -10 18 6 11 8 11 12 0 2 -7 1 -15 -2 -18z
m1284 14 c0 -10 -38 -46 -43 -41 -3 3 -19 -2 -36 -10 -16 -9 -40 -16 -53 -16
-13 0 -33 -7 -44 -15 -19 -13 -23 -12 -41 13 l-20 27 36 -3 c32 -3 176 29 189
43 6 6 12 7 12 2z m-1115 -37 c4 -6 -6 -10 -22 -9 -25 0 -26 1 -8 9 11 5 21 9
22 9 1 1 5 -3 8 -9z m124 -30 c-25 -7 -77 4 -91 18 -4 4 20 3 54 -2 47 -8 56
-12 37 -16z m222 -10 c77 0 99 3 94 13 -4 6 3 1 14 -13 33 -40 28 -54 -16 -45
-21 4 -56 9 -78 10 -49 3 -127 14 -132 19 -2 2 0 11 4 22 4 11 8 13 11 6 2 -8
35 -12 103 -12z m222 13 c-7 -2 -19 -2 -25 0 -7 3 -2 5 12 5 14 0 19 -2 13 -5z
m230 -3 c51 4 71 2 79 -8 17 -20 -4 -29 -96 -40 -150 -19 -167 -15 -135 27 18
24 25 27 52 22 18 -4 63 -5 100 -1z m-593 -10 c0 -5 -9 -10 -19 -10 -11 0 -23
5 -26 10 -4 6 5 10 19 10 14 0 26 -4 26 -10z m308 -7 c-6 -7 -14 -13 -19 -13
-5 0 -9 6 -9 13 0 7 9 13 19 13 15 0 17 -3 9 -13z m122 7 c0 -14 -16 -21 -34
-14 -24 9 -19 19 9 22 14 1 25 -2 25 -8z m-44 -32 c16 -18 23 -28 16 -22 -8 7
-34 9 -60 7 l-47 -4 28 25 c15 14 29 26 31 26 1 0 15 -15 32 -32z"/>
<path d="M3320 3934 c-63 -18 -144 -40 -180 -48 -135 -31 -186 -43 -225 -54
-229 -60 -549 -85 -800 -62 -150 13 -144 -20 15 -84 142 -57 223 -71 405 -70
124 1 164 5 230 24 44 12 89 24 100 27 11 3 34 11 52 19 17 8 36 14 43 14 31
0 454 197 504 235 20 15 14 36 -12 34 -9 -1 -69 -16 -132 -35z"/>
<path d="M6780 3958 c0 -15 79 -68 102 -68 7 0 18 -4 24 -9 12 -13 163 -91
175 -91 5 0 38 -14 74 -31 91 -43 269 -102 390 -130 80 -19 330 -18 415 0 62
14 198 64 261 96 19 10 29 22 27 33 -3 15 -13 16 -78 12 -223 -15 -581 3 -710
35 -30 7 -86 21 -125 30 -152 35 -273 66 -455 115 -70 20 -100 22 -100 8z
m220 -74 c0 -2 -7 -4 -15 -4 -8 0 -15 4 -15 10 0 5 7 7 15 4 8 -4 15 -8 15
-10z m50 -14 c8 -5 12 -11 9 -14 -3 -3 -14 1 -25 9 -21 16 -8 20 16 5z m101
-63 c-8 -8 -11 -8 -11 2 0 7 -4 9 -10 6 -5 -3 -10 -2 -10 4 0 12 34 20 39 8 2
-5 -2 -14 -8 -20z m64 13 c-3 -5 -1 -10 4 -10 6 0 11 -4 11 -10 0 -16 -36 -12
-50 5 -11 13 -10 14 3 10 8 -4 18 -2 22 4 3 6 8 11 11 11 3 0 2 -4 -1 -10z
m58 -34 c4 -10 1 -13 -8 -9 -8 3 -12 9 -9 14 7 12 11 11 17 -5z m28 -29 c-10
-9 -11 -8 -5 6 3 10 9 15 12 12 3 -3 0 -11 -7 -18z m125 -18 c11 -9 122 -25
138 -21 5 2 4 -3 -2 -11 -10 -12 -22 -11 -79 4 -81 20 -135 39 -147 50 -11 10
76 -11 90 -22z m764 1 c-8 -5 -19 -10 -25 -10 -5 0 -3 5 5 10 8 5 20 10 25 10
6 0 3 -5 -5 -10z m-87 -15 c30 -13 18 -26 -18 -19 -19 3 -35 2 -35 -2 0 -5
-11 -9 -25 -9 l-24 0 26 21 c26 21 44 23 76 9z m-113 -5 c0 -5 -10 -21 -21
-34 -18 -21 -25 -23 -44 -14 -13 6 -36 7 -52 3 -79 -21 -114 -16 -139 23 -14
21 -14 24 -2 14 19 -15 178 -25 210 -13 l23 9 -25 10 c-24 10 -23 11 13 11 20
1 37 -3 37 -9z m-261 -46 l26 -27 -25 7 c-30 8 -130 27 -147 28 -9 1 -9 5 -3
13 6 7 32 11 66 9 47 -2 62 -7 83 -30z"/>
<path d="M3412 3560 c-57 -28 -106 -50 -109 -50 -4 0 -41 -16 -82 -36 -89 -42
-94 -45 -186 -78 -107 -39 -155 -53 -220 -65 -33 -6 -95 -17 -139 -26 -43 -8
-95 -15 -116 -15 -46 0 -60 -23 -27 -44 39 -25 253 -39 361 -23 117 16 251 79
442 207 171 114 241 180 191 180 -7 0 -58 -23 -115 -50z"/>
<path d="M6712 3598 c5 -15 178 -150 223 -174 17 -9 39 -24 50 -34 24 -22 213
-119 276 -142 151 -56 529 -33 478 28 -6 8 -23 14 -38 14 -30 0 -227 34 -286
49 -22 6 -62 16 -90 23 -27 6 -52 15 -55 18 -3 4 -18 10 -33 14 -41 10 -298
120 -399 172 -87 44 -133 55 -126 32z m207 -102 c15 -8 20 -16 13 -20 -10 -6
-62 20 -62 30 0 8 26 3 49 -10z m51 -31 c4 3 10 -2 14 -10 3 -8 1 -17 -5 -21
-15 -9 -39 15 -32 34 4 10 8 12 11 4 2 -7 7 -10 12 -7z m84 -74 c-2 -3 -12 3
-22 13 -16 17 -16 18 5 5 12 -7 20 -15 17 -18z m26 19 c0 -5 -2 -10 -4 -10 -3
0 -8 5 -11 10 -3 6 -1 10 4 10 6 0 11 -4 11 -10z m53 -19 c3 -11 -1 -22 -8
-25 -17 -6 -39 19 -30 34 10 17 32 11 38 -9z m75 -27 c5 3 12 -1 16 -9 3 -8
-3 -19 -14 -25 -23 -12 -43 -13 -36 -1 4 5 0 11 -6 14 -10 3 -10 8 1 21 10 12
16 14 21 5 4 -6 12 -9 18 -5z m73 -39 c20 7 24 -2 11 -22 -5 -8 -14 -6 -30 8
-15 12 -21 23 -15 31 5 10 8 8 11 -5 3 -13 9 -16 23 -12z m117 -33 c8 8 15 8
26 -1 10 -9 29 -11 56 -6 27 4 40 3 40 -4 0 -7 10 -9 28 -5 25 7 26 6 12 -12
-8 -10 -15 -20 -16 -22 -1 -2 -12 3 -23 10 -18 11 -23 11 -31 -2 -8 -12 -10
-12 -10 -1 0 11 -12 12 -55 7 -45 -5 -55 -3 -55 9 0 17 -31 20 -47 4 -8 -8
-11 -6 -10 7 2 24 37 35 58 18 11 -10 18 -11 27 -2z m287 -31 c-11 -5 -42 -12
-69 -16 -45 -6 -49 -5 -37 9 10 11 30 16 70 15 38 0 50 -3 36 -8z"/>
<path d="M3430 3140 c-69 -49 -128 -90 -132 -90 -5 0 -30 -16 -57 -35 -26 -19
-53 -35 -60 -35 -6 0 -11 -4 -11 -10 0 -5 -6 -10 -13 -10 -7 0 -31 -9 -52 -21
-55 -28 -161 -68 -213 -80 -51 -11 -74 -30 -62 -49 11 -19 221 -7 275 15 91
37 142 64 175 94 19 17 39 31 43 31 4 0 22 15 40 33 19 18 44 42 58 52 43 36
159 167 159 181 0 26 -25 13 -150 -76z"/>
<path d="M6680 3221 c0 -29 175 -207 293 -299 32 -24 98 -60 145 -80 81 -33
95 -35 197 -36 96 -1 110 1 113 16 3 13 -10 21 -55 34 -72 20 -186 65 -193 75
-3 4 -16 10 -30 14 -46 11 -387 230 -419 269 -14 17 -51 22 -51 7z m140 -107
c0 -2 -9 0 -20 6 -11 6 -20 13 -20 16 0 2 9 0 20 -6 11 -6 20 -13 20 -16z m30
-19 c11 -13 10 -14 -4 -9 -9 3 -16 10 -16 15 0 13 6 11 20 -6z m70 -55 c15 0
61 -48 52 -54 -5 -3 -12 -2 -16 2 -4 4 -11 7 -15 7 -9 0 -61 59 -61 70 0 3 7
-1 16 -9 8 -9 19 -16 24 -16z m100 -70 c0 -5 7 -10 15 -10 8 0 15 -7 15 -16 0
-10 5 -14 16 -10 10 4 21 -4 32 -24 9 -16 20 -30 25 -30 4 0 7 -4 7 -9 0 -12
-81 31 -125 66 -19 15 -31 31 -29 35 7 12 44 10 44 -2z m162 -103 c-15 -17
-17 -17 -34 5 -42 53 -42 59 6 35 41 -21 42 -23 28 -40z m79 -23 c19 -15 26
-24 17 -21 -9 3 -33 9 -53 13 -29 5 -33 9 -24 20 16 19 20 18 60 -12z m69 -4
c8 -5 11 -12 8 -16 -10 -9 -38 3 -38 16 0 12 10 13 30 0z"/>
<path d="M4112 3168 c5 -14 29 -28 178 -106 226 -118 401 -202 422 -202 8 0
18 -4 24 -8 13 -11 107 -46 184 -68 50 -15 98 -19 210 -19 144 0 218 12 305
50 17 7 53 21 80 30 53 19 211 90 285 129 25 13 108 56 185 96 145 75 165 87
165 101 0 12 -57 12 -65 0 -3 -5 -20 -13 -37 -17 -18 -3 -98 -28 -178 -54 -80
-26 -174 -55 -210 -65 -36 -9 -92 -25 -125 -35 -158 -46 -315 -65 -470 -56
-170 9 -305 41 -675 157 -85 26 -167 51 -183 55 -15 3 -30 10 -33 15 -8 14
-66 11 -62 -3z m1828 -88 c-14 -11 -29 -20 -35 -20 -5 0 4 9 20 20 38 25 48
25 15 0z m-240 -84 c0 -2 -8 -10 -17 -17 -16 -13 -17 -12 -4 4 13 16 21 21 21
13z"/>
<path d="M3515 2795 c-111 -92 -283 -191 -390 -225 -81 -26 -109 -45 -85 -60
22 -14 101 -12 163 4 103 27 174 73 292 193 47 47 85 91 85 99 0 22 -32 16
-65 -11z"/>
<path d="M6680 2810 c0 -11 48 -67 105 -124 97 -96 190 -152 287 -175 67 -16
143 -14 157 3 15 18 6 24 -108 61 -103 34 -302 151 -387 226 -22 20 -54 25
-54 9z m152 -113 c27 -20 44 -38 40 -41 -5 -3 -33 18 -63 45 -57 54 -53 53 23
-4z m127 -81 c31 -18 73 -39 94 -46 20 -6 37 -15 37 -20 0 -19 -18 -18 -49 1
-18 11 -36 18 -38 15 -7 -7 -61 21 -95 49 -15 13 -24 26 -21 29 9 9 11 8 72
-28z m183 -94 c-37 -4 -47 1 -38 17 4 6 17 6 39 -2 l32 -12 -33 -3z"/>
<path d="M4056 2702 c-8 -14 7 -24 134 -87 142 -70 140 -69 165 -83 11 -7 56
-28 100 -47 44 -20 94 -42 110 -50 17 -8 62 -26 100 -40 39 -14 79 -30 90 -34
221 -93 545 -93 750 0 11 5 56 22 100 38 44 16 100 40 125 53 25 13 72 34 105
47 33 13 72 32 87 43 14 10 30 18 35 18 14 0 226 110 242 126 8 7 12 16 8 20
-6 7 -27 1 -247 -67 -58 -18 -109 -34 -115 -35 -5 -2 -35 -10 -65 -19 -30 -9
-73 -20 -95 -25 -22 -5 -53 -13 -68 -19 -16 -6 -61 -18 -100 -27 -307 -66
-577 -58 -872 27 -38 11 -86 24 -105 29 -19 5 -82 23 -140 40 -58 18 -109 33
-115 34 -5 2 -17 6 -25 9 -13 5 -130 39 -182 53 -9 3 -19 1 -22 -4z m1994 -72
c-20 -13 -33 -13 -25 0 3 6 14 10 23 10 15 0 15 -2 2 -10z m-58 -26 c-13 -9
-42 -18 -65 -20 l-42 -4 55 19 c70 24 80 25 52 5z m-122 -27 c0 -2 -10 -12
-22 -23 l-23 -19 19 23 c18 21 26 27 26 19z m-60 -37 c0 -5 -5 -10 -11 -10 -5
0 -7 5 -4 10 3 6 8 10 11 10 2 0 4 -4 4 -10z m-30 -18 c0 -4 -9 -8 -20 -9 -11
-1 -20 2 -20 8 0 5 9 9 20 9 11 0 20 -4 20 -8z m-99 -45 c-13 -13 -26 -3 -16
12 3 6 11 8 17 5 6 -4 6 -10 -1 -17z m-66 -6 c3 -5 2 -12 -3 -15 -5 -3 -9 1
-9 9 0 17 3 19 12 6z m-198 -67 c-3 -3 -12 -4 -19 -1 -8 3 -5 6 6 6 11 1 17
-2 13 -5z m-317 -30 c0 -2 -16 -4 -35 -4 -19 0 -35 4 -35 8 0 4 16 6 35 4 19
-2 35 -6 35 -8z m225 6 c-3 -5 -14 -10 -23 -10 -15 0 -15 2 -2 10 20 13 33 13
25 0z m-72 -7 c-7 -2 -19 -2 -25 0 -7 3 -2 5 12 5 14 0 19 -2 13 -5z"/>
<path d="M3552 2399 c-12 -5 -46 -26 -75 -48 -28 -22 -88 -56 -132 -76 -142
-65 -156 -78 -91 -83 85 -7 160 28 257 119 42 40 76 86 67 94 -2 1 -13 -1 -26
-6z"/>
<path d="M6687 2404 c-10 -10 41 -77 92 -121 76 -66 124 -86 199 -87 85 -1 90
16 15 44 -67 25 -141 65 -221 118 -75 51 -78 52 -85 46z m184 -139 c17 -6 28
-25 13 -25 -9 0 -92 59 -99 70 -4 6 10 -1 30 -14 20 -14 45 -28 56 -31z m69
-35 c12 -8 11 -10 -7 -10 -13 0 -23 5 -23 10 0 13 11 13 30 0z"/>
<path d="M3987 2234 c-4 -4 -7 -11 -7 -15 0 -10 250 -131 435 -209 11 -5 50
-22 86 -38 102 -46 326 -120 414 -137 197 -38 412 -21 611 50 141 49 160 56
191 70 17 8 33 15 36 15 3 0 34 13 69 29 35 16 80 35 101 42 20 7 37 17 37 21
0 4 6 8 14 8 8 0 27 7 43 15 15 8 64 30 108 50 110 50 165 79 165 86 0 13 -31
19 -48 10 -9 -4 -42 -14 -72 -20 -30 -7 -64 -16 -75 -21 -36 -15 -234 -70
-254 -70 -11 0 -23 -4 -26 -10 -3 -5 -16 -10 -27 -10 -12 0 -44 -7 -72 -14
-105 -30 -213 -55 -291 -68 -115 -19 -485 -16 -600 4 -115 20 -436 99 -539
132 -43 14 -86 26 -96 26 -9 0 -20 3 -23 7 -4 4 -38 14 -75 24 -37 9 -74 20
-83 23 -8 4 -18 3 -22 0z m2118 -83 c-16 -10 -34 -16 -40 -13 -5 3 4 12 20 18
44 19 54 17 20 -5z m-61 -19 c2 -4 -10 -14 -27 -21 -18 -7 -51 -22 -73 -33
-23 -10 -52 -21 -64 -23 -13 -2 -25 -7 -28 -10 -7 -6 -32 15 -32 27 0 5 5 6
10 3 6 -3 10 -1 10 4 0 6 8 11 17 11 16 0 28 3 123 34 55 18 58 18 64 8z
m-226 -91 c3 -8 0 -11 -6 -7 -6 3 -14 1 -17 -5 -4 -5 -14 -8 -22 -5 -8 3 -24
-3 -35 -14 -26 -24 -37 -19 -30 15 3 19 8 23 15 16 16 -16 27 -14 27 5 0 19
61 15 68 -5z m-146 -22 c17 -9 18 -13 7 -20 -20 -12 -31 -11 -23 2 3 6 0 15
-7 20 -20 13 -1 11 23 -2z m-35 -35 c-3 -3 -12 -4 -19 -1 -8 3 -5 6 6 6 11 1
17 -2 13 -5z m-107 -33 c-22 -13 -80 -21 -80 -11 0 8 31 16 75 18 16 1 17 0 5
-7z m-115 -28 c-20 -20 -66 -27 -62 -10 2 10 25 18 70 26 5 0 1 -7 -8 -16z
m-512 -10 c3 -5 -5 -8 -18 -8 -13 0 -21 3 -18 8 2 4 10 7 18 7 8 0 16 -3 18
-7z m57 -4 c0 -5 5 -7 12 -3 7 4 8 3 4 -5 -6 -9 -11 -9 -22 0 -17 14 -18 19
-4 19 6 0 10 -5 10 -11z m239 -6 c8 -16 3 -18 -54 -18 -78 0 -94 11 -28 20 41
6 54 8 70 14 1 1 6 -7 12 -16z m131 6 c12 -9 12 -10 -3 -5 -11 3 -32 -2 -48
-11 -28 -16 -30 -16 -46 1 -10 10 -13 16 -7 13 6 -3 24 -2 40 3 40 11 47 11
64 -1z"/>
</g>
</svg>
