<?xml version="1.0" encoding="utf-8"?>
<svg xmlns="http://www.w3.org/2000/svg" viewBox="0 0 500 500" xmlns:bx="https://boxy-svg.com" width="500px" height="500px"><defs><bx:export><bx:file format="svg"/></bx:export></defs><path style="fill: rgb(216, 216, 216); stroke: rgb(0, 0, 0); transform-origin: 382.672px 349.72px;" d="M 92.022 -162.34 C 92.022 -162.34 515.884 699.271 515.719 699.441 C 515.548 699.612 409.419 -65.766 409.419 -65.766" transform="matrix(-1, 0, 0, -1, 0.000007, -0.000044)"/><path style="fill: rgb(216, 216, 216); stroke: rgb(0, 0, 0); transform-origin: -254.572px 115.896px;" d="M -675.1 -573.4 C -675.1 -573.4 -759.03 231.604 -759.08 231.791 C -759.18 231.975 -352.56 -607.87 -352.56 -607.87" transform="matrix(-1, 0, 0, -1, -0.000006, -0.000002)"/><text style="white-space: pre; fill: rgb(51, 51, 51); font-family: Arial, sans-serif; font-size: 28px;" x="28.292" y="480.701" transform="matrix(0.922544, 0, 0, 0.943535, 27.312139, -10.200951)"> </text><path style="fill: rgb(216, 216, 216); stroke: rgb(0, 0, 0); transform-origin: -476.639px -148.887px;" d="M -962.87 -797.76 C -962.87 -797.76 -1202.1 -297.95 -1202.2 -297.77 C -1202.3 -297.58 -952.52 -667.38 -952.52 -667.38" transform="matrix(-1, 0, 0, -1, 0.000043, -0.000012)"/><path style="fill: rgb(216, 216, 216); stroke: rgb(0, 0, 0); transform-origin: 964.944px -157.781px;" d="M 484.458 489.733 C 484.458 489.733 248.028 -9.033 247.933 -9.217 C 247.84 -9.407 494.584 359.621 494.584 359.621" transform="matrix(0.999917, -0.012872, 0.012872, 0.999917, 0, 0)"/><text style="fill: rgb(51, 51, 51); font-family: Arial, sans-serif; font-size: 28px; white-space: pre; transform-box: fill-box; transform-origin: 18.6755px 15.6084px;" transform="matrix(0.103871, 0.988255, -0.671272, 0.070554, -39.932956, 69.577888)" x="42.048" y="338.955" dx="-0.563" dy="-2.009">KS</text><text style="white-space: pre; fill: rgb(51, 51, 51); font-family: Arial, sans-serif; font-size: 28px;" x="97.369" y="324.461"> </text></svg>