<svg xmlns="http://www.w3.org/2000/svg" width="12.8mm" height="48.378" viewBox="0 0 12.8 12.8">
    <rect x="1.6" y="0.0" width="1.6" height="1.6" fill="#71fb51"/>
    <rect x="3.2" y="0.0" width="1.6" height="1.6" fill="#71fb51"/>
    <rect x="4.800000000000001" y="0.0" width="1.6" height="1.6" fill="#71fb51"/>
    <rect x="6.4" y="0.0" width="1.6" height="1.6" fill="#71fb51"/>
    <rect x="8.0" y="0.0" width="1.6" height="1.6" fill="#71fb51"/>
    <rect x="9.600000000000001" y="0.0" width="1.6" height="1.6" fill="#71fb51"/>
    <rect x="11.200000000000001" y="0.0" width="1.6" height="1.6" fill="#71fb51"/>
    <rect x="8.0" y="1.6" width="1.6" height="1.6" fill="#71fb51"/>
    <rect x="9.600000000000001" y="1.6" width="1.6" height="1.6" fill="#71fb51"/>
    <rect x="8.0" y="3.2" width="1.6" height="1.6" fill="#71fb51"/>
    <rect x="9.600000000000001" y="3.2" width="1.6" height="1.6" fill="#71fb51"/>
    <rect x="8.0" y="4.800000000000001" width="1.6" height="1.6" fill="#71fb51"/>
    <rect x="9.600000000000001" y="4.800000000000001" width="1.6" height="1.6" fill="#71fb51"/>
    <rect x="8.0" y="6.4" width="1.6" height="1.6" fill="#71fb51"/>
    <rect x="9.600000000000001" y="6.4" width="1.6" height="1.6" fill="#71fb51"/>
    <rect x="8.0" y="8.0" width="1.6" height="1.6" fill="#71fb51"/>
    <rect x="9.600000000000001" y="8.0" width="1.6" height="1.6" fill="#71fb51"/>
    <rect x="1.6" y="9.600000000000001" width="1.6" height="1.6" fill="#71fb51"/>
    <rect x="8.0" y="9.600000000000001" width="1.6" height="1.6" fill="#71fb51"/>
    <rect x="9.600000000000001" y="9.600000000000001" width="1.6" height="1.6" fill="#71fb51"/>
    <rect x="1.6" y="11.200000000000001" width="1.6" height="1.6" fill="#71fb51"/>
    <rect x="3.2" y="11.200000000000001" width="1.6" height="1.6" fill="#71fb51"/>
    <rect x="4.800000000000001" y="11.200000000000001" width="1.6" height="1.6" fill="#71fb51"/>
    <rect x="6.4" y="11.200000000000001" width="1.6" height="1.6" fill="#71fb51"/>
</svg>