<svg xmlns="http://www.w3.org/2000/svg" width="25.6mm" height="25.6mm" viewBox="0 0 25.6 25.6"><g style="display:inline"><path d="M6.4 16v9.6h4.8v-6.4h3.2v6.4h4.8V16z" style="display:inline;fill:#d38d5f;stroke-width:.219096"/><path d="M8 17.6h11.2v1.6H8z" style="display:inline;fill:#784421;stroke-width:.247495"/><path d="M4.8 14.4h16V16h-16Z" style="display:inline;fill:#784421;stroke-width:.295813"/><path d="M6.4 16h11.2v1.6H6.4z" style="display:inline;fill:#a05a2c;stroke-width:.247495"/><path d="M6.4 12.8h12.8v1.6H6.4z" style="display:inline;fill:#a05a2c;stroke-width:.264583"/><path d="M14.4 20.8v1.6h4.8v-1.6zM11.2 22.4v-1.6H8v1.6z" style="display:inline;fill:#784421;stroke-width:.247495"/><path d="M14.4 19.2v1.6h3.2v-1.6zM6.4 19.2v1.6h4.8v-1.6z" style="display:inline;fill:#a05a2c;stroke-width:.247495"/><path d="M14.4 24v1.6h4.8V24zM11.2 25.6V24H8v1.6z" style="display:inline;fill:#784421;stroke-width:.247503"/><path d="M14.4 22.4V24h3.2v-1.6zM11.2 24v-1.6H6.4V24z" style="display:inline;fill:#a05a2c;stroke-width:.247475"/></g></svg>