<svg xmlns="http://www.w3.org/2000/svg" width="25.6mm" height="25.6mm" viewBox="0 0 25.6 25.6"><g style="display:inline"><path d="M7.6 14h4.6v4.2H7.6z" style="display:inline;fill:#333;stroke-width:.264583"/><path d="M9.6 17.6H16v8H9.6z" style="display:inline;fill:#333;stroke-width:.264583"/><path d="M8 6.4h3.2v3.2H8z" style="display:inline;fill:#502d16;stroke-width:.264583"/><path d="M6.4 12.8v12.8h4.8v-6.4h3.2v6.4h4.8V12.8ZM7.6 14h4v4h-4Z" style="display:inline;fill:#abc837;stroke-width:.236648"/><path d="M7.4 13.8v4.4h4.4v-4.4zm.6.6h1.4v1.4H8Zm1.8 0h1.4v1.4H9.8ZM8 16.2h1.4v1.4H8Zm1.8 0h1.4v1.4H9.8Z" style="display:inline;fill:#a05a2c;stroke-width:.257526"/><path d="M4.8 8h12.8l3.2 1.6v3.2h-16Z" style="display:inline;fill:#784421;stroke-width:.307418"/></g></svg>