<svg xmlns="http://www.w3.org/2000/svg" width="25.6mm" height="25.6mm" viewBox="0 0 25.6 25.6"><g style="display:inline;fill:#abc837;fill-opacity:1"><path d="M4.8 6.4v19.2h6.4v-6.4h3.2v6.4h6.4V11.2l-6.4-1.6-3.2-3.2Zm1.4 6.2h3.6v3.6H6.2Z" style="display:inline;fill:#87aade;stroke-width:.278895"/><path d="M14.4 3.2h3.2v6.4h-3.2z" style="display:inline;fill:#502d16;stroke-width:.374177"/><path d="M3.2 4.8v4.8h9.6v1.6l3.2 1.6h6.4V9.6L19.2 8H16V6.4l-3.2-1.6z" style="display:inline;fill:#784421;stroke-width:.264583"/><path d="M5.796 12.188v4.4h4.4v-4.4zm.6.6h1.4v1.4h-1.4zm1.8 0h1.4v1.4h-1.4Zm-1.8 1.8h1.4v1.4h-1.4zm1.8 0h1.4v1.4h-1.4Z" style="display:inline;fill:#a05a2c;stroke-width:.257526"/></g></svg>